<?xml version="1.0" standalone="no"?><!DOCTYPE svg PUBLIC "-//W3C//DTD SVG 1.1//EN" "http://www.w3.org/Graphics/SVG/1.1/DTD/svg11.dtd"><svg t="1699872690768" class="icon" viewBox="0 0 1024 1024" version="1.1" xmlns="http://www.w3.org/2000/svg" p-id="1356" xmlns:xlink="http://www.w3.org/1999/xlink" width="200" height="200"><path d="M492.8 76.8v268.8L640 275.2l121.6 70.4 6.4-275.2z" fill="#188efc" p-id="1357"></path><path d="M889.6 166.4c0-70.4-57.6-121.6-121.6-121.6L217.6 51.2c-70.4 0-121.6 57.6-121.6 128l6.4 665.6c0 70.4 57.6 121.6 121.6 121.6L768 960c32 0 64-12.8 89.6-38.4 25.6-25.6 38.4-57.6 38.4-89.6l-6.4-665.6zM742.4 320l-96-76.8c-6.4-6.4-19.2-6.4-32 0L518.4 326.4V96h224V320z m-512 595.2c-38.4 0-76.8-32-76.8-70.4L147.2 172.8c0-38.4 32-76.8 70.4-76.8h57.6l12.8 812.8-57.6 6.4z m595.2-32c-12.8 12.8-32 19.2-51.2 25.6l-435.2 6.4-12.8-819.2h140.8v249.6c0 12.8 6.4 25.6 12.8 32 12.8 6.4 19.2 6.4 32 6.4h19.2l102.4-83.2 102.4 76.8c0 6.4 6.4 6.4 12.8 6.4 25.6 0 44.8-19.2 44.8-44.8V96c25.6 12.8 51.2 38.4 51.2 70.4V832c0 19.2-6.4 38.4-19.2 51.2z" fill="#2c2c2c" p-id="1358"></path></svg>